<?xml version="1.0" encoding="UTF-8"?>
<!DOCTYPE svg PUBLIC "-//W3C//DTD SVG 1.1//EN" "http://www.w3.org/Graphics/SVG/1.1/DTD/svg11.dtd">
<!-- Creator: CorelDRAW (Versão OEM) -->
<svg xmlns="http://www.w3.org/2000/svg" xml:space="preserve" width="379.212mm" height="87.9372mm" version="1.1" style="shape-rendering:geometricPrecision; text-rendering:geometricPrecision; image-rendering:optimizeQuality; fill-rule:evenodd; clip-rule:evenodd"
viewBox="0 0 55744.7 12926.91"
 xmlns:xlink="http://www.w3.org/1999/xlink"
 xmlns:xodm="http://www.corel.com/coreldraw/odm/2003">
 <defs>
  <style type="text/css">
   <![CDATA[
    .fil0 {fill:white}
    .fil1 {fill:#CD7F32;fill-rule:nonzero}
    .fil2 {fill:white;fill-rule:nonzero}
   ]]>
  </style>
 </defs>
 <g id="Camada_x0020_1">
  <metadata id="CorelCorpID_0Corel-Layer"/>
  <path class="fil0" d="M5873.63 11715.48c-118.67,-448.97 402.09,-10863.96 566.15,-11305.89 455.73,-76.13 6928.29,429.22 7462.52,570.44 79.76,378.28 146.53,4555.33 177.17,5362.43 36.41,958.98 266.07,4780.45 234.35,5321.81 -294.52,255.24 -293.21,187.4 -920.92,181.8 -1292.25,-11.52 -7214.46,8.16 -7519.26,-130.58zm8682.49 -7167l-188.13 -88.32 -0.74 -485.31c1059.1,189.46 925.35,277.45 1581.69,629.27 -187.27,-462.03 -903.65,-874.42 -1615.87,-941.37l-3.31 -1153.51 3307.57 753.15 -1872.65 8129.86 -1079.84 -225.88 -66.81 -1611.27c598.15,-191.34 1345.8,-761.97 1308.83,-1473.9 -343.85,340.25 -386.6,715.32 -1336.2,1161.75l-37.22 -538.04c698.68,-246.01 1393.4,-1039.05 1615.31,-1859.13 129.98,-480.34 97.93,-1029.58 -86.85,-1455.04 -151.75,-349.39 -493.4,-779.48 -869.62,-841 354.7,460.2 882.58,968.15 583.74,1886.6 -206.01,633.15 -683.45,1128.34 -1297.77,1314.64l-105.21 -2963.67c238.38,98.59 607.12,525.71 700.37,848.86 140.64,487.27 -88.79,876.51 -180.06,1315.34 235.66,-66.87 29.66,35.65 217.65,-96.83 122.54,-86.35 229.13,-300.22 281.05,-453.44 89.95,-265.4 92.33,-566.66 24.84,-832 -116.28,-457.19 -439.17,-849.98 -880.77,-1020.78zm-4864.52 -856.17c449.02,5.26 700.05,-183.68 1320.62,-85.29 555.78,88.13 708.4,281.36 1069.95,397.96 -621.95,-777.49 -1477.79,-807.41 -2679.05,-607.19 -230.18,142.02 -731.48,226.75 -1269.04,870.47 -741.96,888.49 -1070.26,2346.88 -312.29,3251.76 236.2,281.96 850.14,766.01 1462.55,742.45 -324.39,-318.05 -1546.34,-810.98 -1275.75,-2419.09 268.98,-1598.55 1519.61,-1924.15 1683.01,-2151.07zm640.13 5631.22c544.71,260.99 1390.68,-123.53 1747.91,-382.53 248.83,-180.42 334.08,-303.88 529.53,-620.67l243.77 -599.12c56.46,-354.85 -1.31,-178.12 -60.46,-256.77 -115.54,490.94 -630.23,976.33 -919.82,1214.23 -315.77,259.43 -665.86,415.18 -1066.97,532.66l-358.73 70.6c-13.77,3.35 -29.19,8.26 -41.13,11.64l-74.1 29.94zm-3058.24 -4621.26c288.8,-317.35 543.23,-1231.84 1839.4,-1629.45 298.03,-91.42 708.89,-100.46 966.12,-227.69 -1379.07,-444.8 -2905.72,586.05 -2805.53,1857.14zm-4511.68 1466.41c110.88,-190.5 208.58,-703.83 342.07,-974.96 289.17,-587.32 699.23,-1044.7 1257.13,-1375.95 157.31,-93.4 279.64,-134.46 461.69,-212.96 314.54,-135.62 313.19,-38.76 482.72,-207.67 -1760.23,-157.22 -2907.03,1744.28 -2562.28,2731.44 3.65,10.41 10.7,27.7 18.67,40.1zm5454.73 147.63c99.77,-166.51 250.87,-897.43 603.87,-1261.6 573.66,-591.8 1878.33,-876.28 2522.75,84.81 339.91,506.95 233.39,1032.25 120.82,1618.62 843.42,-483.21 530.57,-2470.57 -975.81,-2635.02 -1415.17,-154.48 -2421.65,1053.71 -2271.63,2193.19zm3609.76 -5197.87l-5014.75 -349.88 -539.33 10626.41 7585.15 39.16c-185.38,-2659.94 -207.27,-4993.72 -317.67,-7563.34 -9.95,-231.65 2.7,-2743.83 -123.07,-2544.86l-308.47 -78.2c-208.9,-26.65 -261.22,-35.43 -465.57,-1.48 -165.52,-135.56 -575.26,-96.09 -816.29,-127.8zm-2997 4816.96c-281.45,425.44 -248.48,1487.01 560.13,1945.85 698.86,396.55 1538.96,377.26 2239.78,10.86 -178.03,274.1 -470.29,459.25 -843.83,626.09 -375.74,167.8 -888.51,224.79 -1335.14,174.62 -714.72,-80.26 -1250.56,-339.19 -1743.1,-797 -73.94,-68.74 -160.79,-124.29 -228.88,-180.44 178.28,984.21 2530.71,2206.16 4299.56,504.92 1535.42,-1476.73 1062.32,-3841.98 -525.05,-4151.34l356.11 290.77c1700.68,1466.27 -145.03,4068 -1886.65,3226.7 -208.7,-100.81 -559.58,-399.68 -651.53,-577.14 -185.71,-358.42 -151.91,-597.43 -210.95,-952.01l-30.46 -121.88zm-1729.61 -4792.94c319.93,-61.26 5450.98,352.2 6069.45,441.78 -32.99,1515.81 34.25,3314.4 121.81,4829.28 90.54,1566.71 121.67,3129.08 229.48,4707.04l-6915.32 -40.88 494.59 -9937.22zm7444.29 7138.77c15.39,-198.25 6.79,-159.82 213.7,-239.17 94.77,-36.35 189.53,-78.16 262.57,-94.48 -6.03,2.12 -15.24,6.78 -17.29,8.26l-458.98 325.39zm-8997.22 193.57c-42.75,34.22 87.73,122.53 -384.61,-9.28 -2123.25,-592.45 -1231.23,-4022.1 653.13,-4401.64l-11.79 418.1c-943.69,186.12 -1513.72,940.74 -1553.91,1825.11 -8.14,179.06 -0.66,365.37 40.72,537.39 87.66,364.31 186.87,331.02 218.03,353.48 -69.83,-876.39 128.86,-1465.59 689.7,-2027.48 85.17,-85.33 403.75,-283.33 565.68,-320.6l-163.92 3094.06c-205.49,-98.14 -358.93,-293.8 -469.07,-525.63 -51.42,-108.24 -101.65,-244.98 -136.06,-376.71l-157.91 -385.34c-121.75,1042.68 158.45,1334.26 710.02,1818.51zm382.81 -6364.24l-89.08 1725.99c-422.79,66.3 -608.7,-8.79 -1004.21,238.73 -2083.57,1303.96 -2043.73,3912.02 -259.72,4626.9 298.88,119.76 746.36,147.3 988.38,251.33l-7.36 390.42c-724.86,-68.99 -1250.69,-248.86 -1754.7,-705.86 -124.11,-112.54 -280.86,-288.64 -410.38,-349.38 131.96,430.55 471.99,764.79 778.3,969.62 868.84,581.04 1322.96,191.35 1365.63,553.73l-63.15 1376.26 -2033.08 494.73 -2174.26 -8645.46 4663.64 -927.02zm12081.69 930.99c-305.35,-166.92 -1423.81,-385.31 -1831.33,-463.28 -338.88,-64.83 -1680.29,-302.49 -1877.33,-409.06l-10.86 -360.2c815.37,202.08 3727.05,686.64 4195.72,963.17 56.54,218.55 -918.01,4188.08 -1066.53,4772.6 -164.66,648.07 -988.04,4476.42 -1152.73,4696.39 -289.09,25.89 -1352.21,-252.28 -1727.09,-318.46 65.67,-115.57 118.16,-270.72 161.85,-449.63l1300.48 305.54 2007.82 -8737.07zm-17133.73 -266.47c41.57,428.32 971.14,3933.98 1155.81,4668.45 154.41,614.07 1027.85,4387.09 1195.18,4618.85l2228.03 -550.9 160.13 434.11c-678.75,87.14 -2183.28,606.79 -2736.46,572.89l-1271.9 -4944.8c-162.07,-639.44 -1279.15,-4762.47 -1205.38,-5023.21 210.73,-128.33 4989.93,-1103.98 5568.26,-1161.27l-23.08 361.32 -5070.58 1024.56zm5099.53 -1807.88c-253.24,58.99 -509.46,111.69 -777.89,155.57l-4636.99 963.79c-849.9,185.12 -562.88,639.77 -258.55,1857.39l2116.06 8359.44c230.45,940.35 566.79,648.67 2406.17,218.05 224.59,-52.58 463.64,-108.63 715.72,-165.89 255.42,-58.01 478.59,-123.61 714.6,-166.98 806.19,-148.15 2599.47,32.24 3454.7,32.02 1197.42,-0.31 3166.91,-40.32 4297.52,14.86 983.16,47.98 2434.95,819.97 2681.38,66.8l1940.83 -8223.5c446.21,-1760.65 650.63,-1653.44 -1889.18,-2155.82l-1814.6 -363.48c-223.15,-44.16 -406.59,-109.37 -600.5,-125.51 0,-514.39 -53.86,-778.83 -486.3,-862.03 -372.03,-71.58 -833.34,-98.71 -1223.24,-125.1l-2491.03 -205.63c-505.7,-1.41 -3502.97,-309.91 -3753.3,-227.01 -338.74,112.16 -395.4,526.99 -395.4,953.04z"/>
  <g id="_2503048444208">
   <path class="fil1" d="M19694.55 8835.38l0 -7758.48 2895.77 0c852.34,0 1564.45,173.02 2136.32,519.05 571.87,346.04 1003.51,812.27 1294.91,1398.72 291.39,586.43 437.09,1236.62 437.09,1950.55 0,786.77 -160.28,1471.56 -480.81,2054.35 -320.54,582.8 -770.38,1034.46 -1349.53,1355 -579.16,320.54 -1258.48,480.81 -2037.97,480.81l-2895.77 0zm4939.21 -3890.16c0,-451.68 -80.15,-850.52 -240.41,-1196.56 -160.28,-346.03 -393.39,-615.57 -699.36,-808.63 -305.97,-193.06 -673.86,-289.58 -1103.67,-289.58l-1103.67 0 0 4611.38 1103.67 0c437.09,0 806.82,-100.17 1109.14,-300.5 302.32,-200.35 533.62,-477.17 693.89,-830.49 160.26,-353.33 240.41,-748.53 240.41,-1185.63z"/>
   <path id="_1" class="fil1" d="M30851.46 8890.02c-619.21,0 -1147.38,-103.81 -1584.47,-311.44 -437.09,-207.63 -792.24,-489.91 -1065.42,-850.52 -273.19,-360.59 -473.52,-772.2 -601.02,-1232.98 -127.48,-462.6 -191.22,-947.04 -191.22,-1456.99l0 -3961.19 1792.1 0 0 3959.37c0,291.4 29.14,573.69 87.42,845.05 58.27,273.19 152.98,515.42 284.11,726.67 131.13,209.45 300.5,377 508.13,500.85 207.63,123.85 464.41,185.77 770.38,185.77 313.26,0 575.51,-63.74 786.78,-191.23 211.26,-127.48 378.82,-298.68 502.66,-511.77 123.85,-214.9 214.92,-457.13 273.19,-726.67 58.29,-267.72 87.42,-544.55 87.42,-828.66l0 -3959.37 1792.1 0 0 3961.19c0,539.08 -67.39,1039.93 -202.16,1506.16 -134.77,464.42 -340.57,874.2 -617.39,1227.52 -276.83,353.32 -631.97,626.51 -1065.44,823.19 -433.45,196.7 -952.5,295.05 -1557.16,295.05z"/>
   <polygon id="_2" class="fil1" points="41123.26,7283.69 41134.18,8835.38 35692.31,8835.38 35681.39,1076.9 41024.91,1076.9 41035.83,2650.45 37462.56,2628.59 37473.49,4158.44 40522.24,4169.36 40533.18,5611.79 37462.56,5611.79 37473.49,7261.83 "/>
   <polygon id="_3" class="fil1" points="42237.85,8835.38 42226.93,1076.9 44008.1,1076.9 44019.03,7261.83 47767.14,7283.69 47778.06,8835.38 "/>
   <path id="_4" class="fil1" d="M51875.86 8890.02c-582.8,0 -1109.14,-111.1 -1579.02,-333.3 -469.89,-222.18 -874.2,-520.87 -1212.95,-896.05 -338.75,-375.18 -599.18,-797.7 -781.31,-1267.58 -182.12,-469.88 -273.17,-956.14 -273.17,-1458.81 0,-517.23 96.52,-1008.96 289.56,-1475.21 193.06,-466.23 462.6,-883.3 808.64,-1251.19 346.03,-367.89 755.81,-657.46 1229.33,-868.74 473.52,-211.26 990.76,-316.89 1551.7,-316.89 575.51,0 1098.2,111.1 1568.08,333.3 469.88,222.18 874.19,522.69 1212.94,901.5 338.75,378.82 599.19,803.17 781.31,1273.05 182.13,469.88 273.19,948.87 273.19,1436.96 0,517.24 -94.7,1008.97 -284.11,1475.21 -189.41,466.24 -458.95,883.3 -808.63,1251.19 -349.69,367.9 -759.45,659.29 -1229.34,874.2 -469.88,214.9 -985.29,322.36 -1546.22,322.36zm-2021.58 -3933.88c0,298.68 43.7,588.26 131.13,868.74 87.42,280.46 216.72,529.97 387.92,748.53 171.2,218.55 384.29,393.38 639.25,524.52 254.97,131.13 546.38,196.69 874.2,196.69 342.4,0 641.07,-67.39 896.05,-202.16 254.97,-134.77 466.23,-315.08 633.8,-540.91 167.55,-225.84 293.21,-478.99 376.99,-759.45 83.78,-280.48 125.67,-566.41 125.67,-857.81 0,-298.68 -43.72,-586.43 -131.13,-863.27 -87.42,-276.82 -218.55,-526.34 -393.39,-748.53 -174.84,-222.18 -389.75,-395.2 -644.72,-519.05 -254.97,-123.85 -542.73,-185.77 -863.27,-185.77 -342.4,0 -639.25,65.56 -890.59,196.69 -251.33,131.14 -462.58,307.79 -633.78,529.98 -171.2,222.19 -298.68,473.52 -382.47,754 -83.78,280.46 -125.66,566.4 -125.66,857.8z"/>
   <path class="fil2" d="M22320.91 6047.53c350.16,0 637.97,51.72 863.44,155.17 225.49,103.46 425.76,224.15 600.84,362.09 106.11,79.57 187.02,88.86 242.71,27.86 55.71,-61.02 94.17,-205.6 115.4,-433.71l183.03 0c-10.61,201.6 -18.57,444.31 -23.87,728.16 -5.31,283.83 -7.95,661.85 -7.95,1134.01l-183.03 0c-37.15,-233.44 -72.96,-424.42 -107.44,-572.97 -34.49,-148.56 -79.57,-275.89 -135.29,-382 -55.7,-106.11 -131.3,-209.55 -226.81,-310.36 -153.85,-190.98 -342.19,-328.93 -565.02,-413.81 -222.83,-84.89 -458.91,-127.33 -708.27,-127.33 -270.57,0 -509.32,67.65 -716.22,202.94 -206.9,135.29 -380.66,327.61 -521.25,576.95 -140.59,249.36 -248.02,543.8 -322.3,883.35 -74.28,339.54 -111.41,710.91 -111.41,1114.13 0,413.82 39.79,789.18 119.37,1126.06 79.59,336.9 194.98,626.04 346.17,867.43 151.21,241.39 334.24,427.08 549.11,557.06 214.87,129.98 454.94,194.97 720.2,194.97 217.52,0 443,-43.76 676.43,-131.3 233.44,-87.54 419.13,-221.5 557.08,-401.87 148.55,-159.17 250.67,-338.22 306.38,-537.17 55.7,-198.95 102.12,-470.86 139.27,-815.7l183.03 0c0,488.09 2.65,882.01 7.95,1181.76 5.31,299.75 13.26,553.09 23.87,760l-183.03 0c-21.23,-228.13 -57.04,-371.37 -107.43,-429.73 -50.41,-58.36 -133.96,-50.41 -250.68,23.87 -196.31,137.93 -404.53,258.63 -624.71,362.09 -220.16,103.45 -502.67,155.17 -847.52,155.17 -525.24,0 -984.15,-114.06 -1376.74,-342.19 -392.6,-228.13 -697.65,-557.06 -915.17,-986.81 -217.53,-429.73 -326.28,-947 -326.28,-1551.82 0,-594.2 112.74,-1114.13 338.22,-1559.78 225.47,-445.65 534.51,-793.15 927.11,-1042.51 392.6,-249.34 846.2,-374.02 1360.82,-374.02z"/>
   <path id="_1_0" class="fil2" d="M26156.69 11848.95c-222.83,0 -413.81,-42.45 -572.98,-127.33 -159.16,-84.89 -278.52,-201.61 -358.11,-350.16 -79.57,-148.55 -119.37,-318.32 -119.37,-509.32 0,-233.44 53.05,-423.1 159.16,-569 106.11,-145.9 242.71,-263.94 409.84,-354.13 167.13,-90.2 344.85,-165.8 533.19,-226.81 188.34,-61.02 366.06,-119.37 533.19,-175.08 167.11,-55.7 305.06,-120.7 413.82,-194.97 108.75,-74.28 163.13,-172.43 163.13,-294.46l0 -541.14c0,-190.98 -30.5,-343.51 -91.51,-457.59 -61.02,-114.06 -143.25,-194.97 -246.7,-242.71 -103.46,-47.76 -226.81,-71.63 -370.05,-71.63 -122.03,0 -252,17.24 -389.95,51.73 -137.95,34.49 -246.7,102.14 -326.28,202.94 116.72,31.83 213.55,94.17 290.48,187.02 76.93,92.85 115.4,208.23 115.4,346.17 0,148.55 -49.08,265.26 -147.24,350.16 -98.14,84.88 -221.49,127.32 -370.05,127.32 -164.47,0 -286.49,-51.72 -366.06,-155.17 -79.59,-103.46 -119.38,-224.15 -119.38,-362.09 0,-143.24 35.82,-259.96 107.44,-350.16 71.62,-90.19 165.79,-175.08 282.51,-254.65 127.33,-84.89 290.48,-156.51 489.43,-214.87 198.94,-58.36 420.44,-87.54 664.49,-87.54 228.13,0 425.76,25.21 592.87,75.6 167.13,50.41 306.38,131.32 417.79,242.73 132.64,122.01 220.18,274.54 262.62,457.59 42.44,183.03 63.67,404.53 63.67,664.49l0 2196.42c0,132.62 17.24,226.81 51.73,282.51 34.49,55.71 91.52,83.56 171.1,83.56 53.05,0 104.78,-13.26 155.19,-39.78 50.39,-26.53 110.07,-66.33 179.05,-119.38l79.59 135.29c-111.41,90.2 -224.16,161.82 -338.22,214.87 -114.06,53.05 -258.63,79.59 -433.71,79.59 -169.77,0 -307.72,-26.53 -413.82,-79.59 -106.11,-53.05 -184.35,-129.98 -234.76,-230.78 -50.39,-100.81 -75.6,-225.49 -75.6,-374.03 -137.93,222.83 -302.4,392.6 -493.4,509.32 -190.98,116.72 -413.81,175.08 -668.48,175.08zm381.98 -382c148.56,0 287.81,-42.44 417.81,-127.32 129.98,-84.89 250.67,-212.23 362.08,-382l0 -1583.65c-58.36,84.89 -143.24,157.84 -254.65,218.86 -111.41,61.01 -230.78,123.35 -358.11,187 -127.33,63.67 -248.02,136.62 -362.09,218.86 -114.06,82.23 -208.23,187.02 -282.51,314.33 -74.28,127.33 -111.41,289.15 -111.41,485.44 0,206.92 53.05,370.05 159.16,489.43 106.11,119.37 249.36,179.05 429.73,179.05z"/>
   <path id="_2_1" class="fil2" d="M31615.91 7575.46c153.85,0 285.17,31.84 393.92,95.51 108.77,63.65 191,144.56 246.7,242.71 55.71,98.15 83.57,208.24 83.57,330.25 0,153.87 -46.42,285.17 -139.27,393.93 -92.85,108.75 -216.2,163.13 -370.05,163.13 -132.64,0 -245.38,-39.78 -338.22,-119.37 -92.85,-79.59 -139.27,-188.34 -139.27,-326.28 0,-116.72 30.5,-216.2 91.52,-298.43 61.01,-82.23 131.3,-147.22 210.89,-194.97 -53.05,-42.44 -116.72,-61.01 -191,-55.7 -143.24,5.31 -275.88,51.72 -397.9,139.25 -122.03,87.54 -225.47,198.95 -310.36,334.24 -84.88,135.3 -151.21,279.86 -198.95,433.71 -47.75,153.87 -71.62,297.1 -71.62,429.74l0 1830.35c0,259.96 71.62,433.71 214.87,521.25 143.24,87.54 342.19,131.3 596.86,131.3l0 167.13c-122.03,-5.31 -295.78,-11.94 -521.25,-19.89 -225.49,-7.97 -462.89,-11.94 -712.25,-11.94 -190.98,0 -381.98,3.97 -572.98,11.94 -190.98,7.95 -336.88,14.58 -437.68,19.89l0 -167.13c206.9,0 354.13,-39.78 441.67,-119.37 87.54,-79.57 131.3,-230.78 131.3,-453.6l0 -2498.84c0,-238.73 -39.78,-415.15 -119.37,-529.21 -79.59,-114.06 -230.78,-171.1 -453.6,-171.1l0 -167.13c169.77,15.92 334.24,23.87 493.4,23.87 180.39,0 348.82,-9.28 505.33,-27.84 156.51,-18.58 301.07,-46.42 433.71,-83.57l0 915.19c63.67,-153.87 148.55,-302.41 254.67,-445.66 106.11,-143.24 233.42,-261.28 381.98,-354.13 148.55,-92.85 313.01,-139.27 493.4,-139.27z"/>
   <path id="_3_2" class="fil2" d="M36231.57 5554.12l0 5371.69c0,238.75 41.12,415.15 123.35,529.21 82.23,114.07 232.12,171.1 449.63,171.1l0 167.13c-164.47,-15.92 -328.93,-23.87 -493.4,-23.87 -180.39,0 -348.83,7.95 -505.33,23.87 -156.51,15.92 -301.09,45.1 -433.71,87.54l0 -5371.69c0,-238.73 -41.12,-415.15 -123.36,-529.21 -82.23,-114.06 -232.1,-171.1 -449.62,-171.1l0 -167.13c169.77,15.92 334.24,23.87 493.4,23.87 175.08,0 342.19,-9.28 501.36,-27.84 159.16,-18.58 305.06,-46.42 437.68,-83.57zm-1790.55 2021.35c233.42,0 446.97,50.41 640.62,151.21 193.65,100.8 330.25,270.57 409.84,509.32l-95.49 87.54c-74.28,-191 -183.05,-330.25 -326.28,-417.79 -143.25,-87.54 -305.06,-131.32 -485.44,-131.32 -302.4,0 -549.11,160.5 -740.09,481.46 -191,320.98 -283.85,815.71 -278.54,1484.19 0,440.34 37.15,799.78 111.41,1078.32 74.28,278.52 184.37,484.11 330.27,616.75 145.9,132.64 322.3,198.95 529.21,198.95 206.9,0 393.92,-87.54 561.05,-262.62 167.11,-175.08 266.59,-427.08 298.43,-756.01l71.62 167.13c-53.05,360.76 -180.39,637.96 -381.98,831.6 -201.61,193.65 -472.18,290.48 -811.73,290.48 -323.62,0 -608.79,-78.25 -855.49,-234.76 -246.7,-156.51 -436.36,-395.24 -569,-716.22 -132.64,-320.98 -198.95,-725.51 -198.95,-1213.6 0,-482.8 80.91,-884.67 242.73,-1205.65 161.8,-320.98 378,-561.05 648.57,-720.2 270.57,-159.16 570.34,-238.75 899.27,-238.75z"/>
   <path id="_4_3" class="fil2" d="M39072.6 6063.43c281.18,0 496.06,31.84 644.6,95.51 148.55,63.65 278.52,132.62 389.94,206.9 63.67,37.13 115.4,64.99 155.19,83.56 39.79,18.57 78.25,27.86 115.4,27.86 53.05,0 91.51,-29.18 115.38,-87.54 23.87,-58.36 43.78,-145.9 59.68,-262.62l183.05 0c-5.31,95.49 -11.94,208.24 -19.9,338.22 -7.95,129.98 -13.26,301.07 -15.91,513.29 -2.66,212.23 -3.98,490.75 -3.98,835.6l-183.03 0c-15.92,-259.96 -72.96,-511.96 -171.11,-756.01 -98.14,-244.05 -241.39,-443 -429.73,-596.86 -188.34,-153.85 -428.41,-230.78 -720.2,-230.78 -270.57,0 -494.72,80.91 -672.46,242.71 -177.72,161.82 -266.59,375.35 -266.59,640.62 0,233.44 58.36,428.42 175.08,584.92 116.72,156.51 277.2,302.41 481.46,437.7 204.26,135.29 436.36,285.17 696.33,449.63 265.26,169.77 504.01,338.21 716.22,505.33 212.21,167.11 379.34,351.48 501.36,553.08 122.01,201.61 183.03,445.65 183.03,732.14 0,344.85 -80.91,630.02 -242.73,855.49 -161.8,225.49 -378,393.92 -648.57,505.33 -270.57,111.43 -567.68,167.13 -891.3,167.13 -297.1,0 -533.19,-31.83 -708.27,-95.49 -175.08,-63.67 -323.62,-129.98 -445.65,-198.95 -116.72,-74.28 -206.92,-111.41 -270.57,-111.41 -53.05,0 -91.52,29.18 -115.4,87.54 -23.87,58.36 -43.78,145.9 -59.68,262.62l-183.05 0c10.61,-116.72 17.24,-253.34 19.9,-409.84 2.65,-156.51 5.31,-362.09 7.95,-616.76 2.66,-254.65 3.98,-575.63 3.98,-962.92l183.03 0c21.23,328.93 80.91,636.65 179.06,923.14 98.14,286.48 249.34,515.95 453.6,688.36 204.26,172.42 476.15,258.63 815.7,258.63 180.39,0 347.51,-34.49 501.36,-103.46 153.85,-68.96 278.52,-177.72 374.03,-326.27 95.49,-148.56 143.24,-339.54 143.24,-572.98 0,-217.52 -51.73,-408.52 -155.17,-572.98 -103.46,-164.47 -246.7,-316.99 -429.74,-457.59 -183.03,-140.59 -396.57,-285.15 -640.62,-433.71 -249.36,-159.16 -482.78,-318.32 -700.32,-477.48 -217.52,-159.16 -391.26,-344.85 -521.24,-557.06 -129.99,-212.23 -194.98,-464.23 -194.98,-756.01 0,-323.64 75.6,-588.9 226.81,-795.81 151.21,-206.92 347.5,-360.77 588.89,-461.57 241.41,-100.8 500.04,-151.21 775.92,-151.21z"/>
   <path id="_5" class="fil2" d="M42987.96 6373.8l0 1321.04 1098.22 0 0 159.16 -1098.22 0 0 3127.5c0,217.53 39.79,371.38 119.38,461.57 79.57,90.2 193.65,135.29 342.19,135.29 137.95,0 261.3,-55.7 370.05,-167.11 108.77,-111.41 202.94,-299.75 282.51,-565.03l151.21 55.71c-63.67,281.18 -176.4,518.59 -338.21,712.24 -161.82,193.65 -399.24,290.48 -712.25,290.48 -180.39,0 -331.59,-22.55 -453.6,-67.65 -122.03,-45.09 -228.13,-110.07 -318.33,-194.97 -116.72,-122.03 -196.29,-267.93 -238.73,-437.68 -42.45,-169.77 -63.67,-395.26 -63.67,-676.44l0 -2673.9 -732.14 0 0 -159.16 732.14 0 0 -1161.89c164.47,-5.31 318.32,-19.89 461.56,-43.76 143.25,-23.87 275.88,-62.34 397.9,-115.4z"/>
   <path id="_6" class="fil2" d="M46386.05 7575.46c355.46,0 671.14,74.28 947.01,222.83 275.88,148.56 496.04,381.98 660.51,700.32 164.48,318.32 246.71,734.79 246.71,1249.41 0,514.62 -82.23,929.77 -246.71,1245.44 -164.47,315.66 -384.63,546.45 -660.51,692.35 -275.88,145.9 -591.55,218.84 -947.01,218.84 -350.16,0 -665.81,-72.94 -947,-218.84 -281.18,-145.9 -502.69,-376.69 -664.51,-692.35 -161.8,-315.67 -242.71,-730.82 -242.71,-1245.44 0,-514.62 80.91,-931.09 242.71,-1249.41 161.82,-318.33 383.32,-551.76 664.51,-700.32 281.18,-148.55 596.84,-222.83 947,-222.83zm0 159.16c-275.88,0 -501.35,157.84 -676.43,473.51 -175.08,315.67 -262.62,828.97 -262.62,1539.89 0,710.91 87.54,1221.55 262.62,1531.92 175.08,310.36 400.55,465.55 676.43,465.55 270.57,0 494.73,-155.19 672.46,-465.55 177.72,-310.36 266.59,-821 266.59,-1531.92 0,-710.91 -88.86,-1224.21 -266.59,-1539.89 -177.72,-315.67 -401.89,-473.51 -672.46,-473.51z"/>
   <path id="_7" class="fil2" d="M51367.78 7575.46c153.85,0 285.17,31.84 393.92,95.51 108.77,63.65 191,144.56 246.7,242.71 55.71,98.15 83.57,208.24 83.57,330.25 0,153.87 -46.42,285.17 -139.27,393.93 -92.85,108.75 -216.2,163.13 -370.05,163.13 -132.64,0 -245.38,-39.78 -338.22,-119.37 -92.85,-79.59 -139.27,-188.34 -139.27,-326.28 0,-116.72 30.5,-216.2 91.52,-298.43 61.01,-82.23 131.3,-147.22 210.89,-194.97 -53.05,-42.44 -116.72,-61.01 -191,-55.7 -143.24,5.31 -275.88,51.72 -397.9,139.25 -122.03,87.54 -225.47,198.95 -310.36,334.24 -84.88,135.3 -151.21,279.86 -198.95,433.71 -47.75,153.87 -71.62,297.1 -71.62,429.74l0 1830.35c0,259.96 71.62,433.71 214.87,521.25 143.24,87.54 342.19,131.3 596.86,131.3l0 167.13c-122.03,-5.31 -295.78,-11.94 -521.25,-19.89 -225.49,-7.97 -462.89,-11.94 -712.25,-11.94 -190.98,0 -381.98,3.97 -572.98,11.94 -190.98,7.95 -336.88,14.58 -437.68,19.89l0 -167.13c206.9,0 354.13,-39.78 441.67,-119.37 87.54,-79.57 131.3,-230.78 131.3,-453.6l0 -2498.84c0,-238.73 -39.78,-415.15 -119.37,-529.21 -79.59,-114.06 -230.78,-171.1 -453.6,-171.1l0 -167.13c169.77,15.92 334.24,23.87 493.4,23.87 180.39,0 348.82,-9.28 505.33,-27.84 156.51,-18.58 301.07,-46.42 433.71,-83.57l0 915.19c63.67,-153.87 148.55,-302.41 254.67,-445.66 106.11,-143.24 233.42,-261.28 381.98,-354.13 148.55,-92.85 313.01,-139.27 493.4,-139.27z"/>
   <path id="_8" class="fil2" d="M54232.67 7575.46c466.88,0 832.96,140.59 1098.22,421.78 265.26,281.18 397.9,726.83 397.9,1336.95l-2745.53 0 -15.91 -151.19 1917.89 0c5.31,-259.97 -15.92,-500.04 -63.67,-720.2 -47.75,-220.18 -122.03,-396.58 -222.83,-529.22 -100.8,-132.62 -233.44,-198.95 -397.9,-198.95 -228.13,0 -425.76,120.7 -592.87,362.09 -167.13,241.39 -269.25,627.36 -306.38,1157.9l23.87 39.79c-5.31,74.27 -10.61,155.17 -15.92,242.71 -5.31,87.54 -7.95,173.76 -7.95,258.63 0,366.08 55.7,673.78 167.11,923.14 111.41,249.34 257.31,436.36 437.7,561.03 180.39,124.69 363.42,187.02 549.1,187.02 143.25,0 282.52,-22.55 417.81,-67.64 135.29,-45.1 263.94,-122.03 385.97,-230.79 122.01,-108.75 230.78,-258.63 326.27,-449.62l159.16 63.67c-63.65,180.37 -161.8,358.11 -294.44,533.19 -132.62,175.06 -302.4,316.99 -509.32,425.75 -206.9,108.77 -448.3,163.14 -724.17,163.14 -371.38,0 -695.01,-83.56 -970.89,-250.68 -275.88,-167.11 -488.09,-407.18 -636.65,-720.2 -148.55,-313.01 -222.83,-684.38 -222.83,-1114.13 0,-472.17 76.94,-875.38 230.79,-1209.62 153.85,-334.24 370.05,-590.23 648.57,-767.95 278.54,-177.74 600.84,-266.6 966.9,-266.6z"/>
  </g>
 </g>
</svg>
